<svg width="64" height="64" viewBox="0 0 64 64" fill="none" xmlns="http://www.w3.org/2000/svg">
	<path d="M22.9327 60L17.866 51.4667L8.26602 49.3333L9.19935 39.4667L2.66602 32L9.19935 24.5333L8.26602 14.6667L17.866 12.5333L22.9327 4L31.9993 7.86667L41.066 4L46.1327 12.5333L55.7327 14.6667L54.7994 24.5333L61.3327 32L54.7994 39.4667L55.7327 49.3333L46.1327 51.4667L41.066 60L31.9993 56.1333L22.9327 60ZM25.1994 53.2L31.9993 50.2667L38.9327 53.2L42.666 46.8L49.9994 45.0667L49.3327 37.6L54.266 32L49.3327 26.2667L49.9994 18.8L42.666 17.2L38.7994 10.8L31.9993 13.7333L25.066 10.8L21.3327 17.2L13.9993 18.8L14.666 26.2667L9.73268 32L14.666 37.6L13.9993 45.2L21.3327 46.8L25.1994 53.2ZM29.1994 41.4667L44.266 26.4L40.5327 22.5333L29.1994 33.8667L23.466 28.2667L19.7327 32L29.1994 41.4667Z" fill="currentColor"/>
</svg>
