<svg width="24" height="24" viewBox="0 0 24 24" fill="none" xmlns="http://www.w3.org/2000/svg">
	<path d="M6 19.75C4.26667 19.3 2.83333 18.3667 1.7 16.95C0.566667 15.5333 0 13.8833 0 12C0 10.1167 0.566667 8.46667 1.7 7.05C2.83333 5.63333 4.26667 4.7 6 4.25V6.35C4.81667 6.75 3.85417 7.46667 3.1125 8.5C2.37083 9.53333 2 10.7 2 12C2 13.3 2.37083 14.4667 3.1125 15.5C3.85417 16.5333 4.81667 17.25 6 17.65V19.75ZM14 20C11.7833 20 9.89583 19.2208 8.3375 17.6625C6.77917 16.1042 6 14.2167 6 12C6 9.78333 6.77917 7.89583 8.3375 6.3375C9.89583 4.77917 11.7833 4 14 4C15.1 4 16.1333 4.20833 17.1 4.625C18.0667 5.04167 18.9167 5.61667 19.65 6.35L18.25 7.75C17.7 7.2 17.0625 6.77083 16.3375 6.4625C15.6125 6.15417 14.8333 6 14 6C12.3333 6 10.9167 6.58333 9.75 7.75C8.58333 8.91667 8 10.3333 8 12C8 13.6667 8.58333 15.0833 9.75 16.25C10.9167 17.4167 12.3333 18 14 18C14.8333 18 15.6125 17.8458 16.3375 17.5375C17.0625 17.2292 17.7 16.8 18.25 16.25L19.65 17.65C18.9167 18.3833 18.0667 18.9583 17.1 19.375C16.1333 19.7917 15.1 20 14 20Z" fill="currentColor"/>
	<path d="M16 16L17.4 14.6L15.8 13H23V11H15.8L17.4 9.4L16 8L12 12L16 16Z" fill="currentColor"/>
</svg>
